<svg height="512pt" viewBox="-31 0 512 512" width="512pt" xmlns="http://www.w3.org/2000/svg"><path d="m450 512h-105c-24.8125 0-45-20.1875-45-45s20.1875-45 45-45h30c8.277344 0 15-6.722656 15-15s-6.722656-15-15-15h-180v-30h180c24.8125 0 45 20.1875 45 45s-20.1875 45-45 45h-30c-8.277344 0-15 6.722656-15 15s6.722656 15 15 15h105zm0 0" fill="#465a61"/><path d="m195 0c-107.402344 0-195 88.597656-195 196s87.597656 196 195 196 195-88.597656 195-196-87.597656-196-195-196zm0 0" fill="#ebf2f0"/><path d="m390 196c0 107.402344-87.597656 196-195 196v-392c107.402344 0 195 88.597656 195 196zm0 0" fill="#e1ebf0"/><path d="m195 61c-24.902344 0-45 20.097656-45 45s20.097656 45 45 45 45-20.097656 45-45-20.097656-45-45-45zm0 0" fill="#697c86"/><path d="m195 241c-24.902344 0-45 20.097656-45 45s20.097656 45 45 45 45-20.097656 45-45-20.097656-45-45-45zm0 0" fill="#697c86"/><path d="m105 241c-24.8125 0-45-20.1875-45-45s20.1875-45 45-45 45 20.1875 45 45-20.1875 45-45 45zm0 0" fill="#697c86"/><path d="m285 241c-24.8125 0-45-20.1875-45-45s20.1875-45 45-45 45 20.1875 45 45-20.1875 45-45 45zm0 0" fill="#465a61"/><path d="m180 181h30v30h-30zm0 0" fill="#697c86"/><g fill="#465a61"><path d="m240 286c0 24.902344-20.097656 45-45 45v-90c24.902344 0 45 20.097656 45 45zm0 0"/><path d="m195 151v-90c24.902344 0 45 20.097656 45 45s-20.097656 45-45 45zm0 0"/><path d="m195 181h15v30h-15zm0 0"/></g></svg>