<?xml version="1.0" encoding="utf-8"?>
<!-- Generator: Adobe Illustrator 22.0.1, SVG Export Plug-In . SVG Version: 6.00 Build 0)  -->
<svg version="1.1" id="Capa_1" xmlns="http://www.w3.org/2000/svg" xmlns:xlink="http://www.w3.org/1999/xlink" x="0px" y="0px"
	 viewBox="0 0 100 100" style="enable-background:new 0 0 100 100;" xml:space="preserve">
<style type="text/css">
	.st0{fill:#166CBF;}
	.st1{fill:#1E90FF;}
</style>
<path class="st1" d="M28.2,51.7L8.5,33.1c-2.3-2.3-2.3-5.9,0-8.2s5.9-2.3,8.2,0l15.9,14.9l14.7,14c2.1,2.4,2,6-0.4,8.1
	c-2,1.8-4.9,2-7.1,0.5"/>
<path class="st0" d="M50,99C22.9,99,1,77.1,1,50S22.9,1,50,1s49,21.9,49,49S77.1,99,50,99z M50,12.5c-20.7,0-37.5,16.8-37.5,37.5
	S29.3,87.5,50,87.5S87.5,70.7,87.5,50S70.7,12.5,50,12.5z"/>
</svg>
